<svg width="24" height="24" viewBox="0 0 24 24" fill="none" xmlns="http://www.w3.org/2000/svg">
<path d="M12.7943 16.9191L18.8815 10.5621C18.9825 10.4577 19.0626 10.3335 19.1173 10.1966C19.172 10.0597 19.2002 9.91292 19.2002 9.76465C19.2002 9.61639 19.172 9.46959 19.1173 9.33272C19.0626 9.19586 18.9825 9.07164 18.8815 8.96723C18.6796 8.75804 18.4066 8.64062 18.122 8.64062C17.8373 8.64062 17.5643 8.75804 17.3624 8.96723L11.9755 14.5268L6.64251 8.96722C6.44065 8.75804 6.16758 8.64062 5.88296 8.64062C5.59833 8.64062 5.32527 8.75804 5.12341 8.96722C5.02161 9.07124 4.94062 9.19529 4.88514 9.33217C4.82966 9.46906 4.80079 9.61605 4.80019 9.76465C4.80079 9.91325 4.82966 10.0603 4.88514 10.1971C4.94062 10.334 5.02161 10.4581 5.12341 10.5621L11.2106 16.9191C11.3115 17.0331 11.4339 17.124 11.5702 17.1863C11.7065 17.2485 11.8537 17.2806 12.0025 17.2806C12.1512 17.2806 12.2984 17.2485 12.4347 17.1863C12.571 17.124 12.6934 17.0331 12.7943 16.9191Z" fill="white"/>
</svg>
