<svg width="24" height="24" viewBox="0 0 24 24" fill="none" xmlns="http://www.w3.org/2000/svg">
<path d="M20.4604 9.63031C20.32 8.16922 19.8036 6.76939 18.9616 5.56713C18.1195 4.36486 16.9805 3.40114 15.6554 2.7698C14.3303 2.13846 12.8642 1.86103 11.4001 1.96451C9.93592 2.068 8.5235 2.54887 7.30037 3.36031C6.24957 4.06295 5.36742 4.98961 4.71731 6.0737C4.0672 7.15779 3.66526 8.37241 3.54037 9.63031C3.41785 10.88 3.57504 12.1412 4.00054 13.3226C4.42604 14.5039 5.10917 15.5758 6.00037 16.4603L11.3004 21.7703C11.3933 21.864 11.5039 21.9384 11.6258 21.9892C11.7477 22.04 11.8784 22.0661 12.0104 22.0661C12.1424 22.0661 12.2731 22.04 12.3949 21.9892C12.5168 21.9384 12.6274 21.864 12.7204 21.7703L18.0004 16.4603C18.8916 15.5758 19.5747 14.5039 20.0002 13.3226C20.4257 12.1412 20.5829 10.88 20.4604 9.63031ZM16.6004 15.0503L12.0004 19.6503L7.40037 15.0503C6.72246 14.3724 6.20317 13.5526 5.87984 12.6501C5.5565 11.7475 5.43715 10.7845 5.53037 9.83031C5.62419 8.86141 5.93213 7.92547 6.43194 7.09015C6.93175 6.25483 7.61093 5.54102 8.42037 5.00031C9.48131 4.29554 10.7267 3.9196 12.0004 3.9196C13.2741 3.9196 14.5194 4.29554 15.5804 5.00031C16.3874 5.53893 17.065 6.24959 17.5647 7.08125C18.0644 7.9129 18.3737 8.84491 18.4704 9.81031C18.5666 10.7677 18.4488 11.7346 18.1254 12.6409C17.8019 13.5471 17.281 14.3701 16.6004 15.0503ZM12.0004 6.00031C11.1104 6.00031 10.2403 6.26423 9.5003 6.7587C8.76028 7.25316 8.18351 7.95597 7.84291 8.77823C7.50232 9.6005 7.4132 10.5053 7.58684 11.3782C7.76047 12.2511 8.18905 13.053 8.81839 13.6823C9.44773 14.3116 10.2495 14.7402 11.1225 14.9138C11.9954 15.0875 12.9002 14.9984 13.7224 14.6578C14.5447 14.3172 15.2475 13.7404 15.742 13.0004C16.2364 12.2604 16.5004 11.3903 16.5004 10.5003C16.4977 9.30765 16.0228 8.16459 15.1794 7.32125C14.3361 6.4779 13.193 6.00295 12.0004 6.00031ZM12.0004 13.0003C11.5059 13.0003 11.0226 12.8537 10.6114 12.579C10.2003 12.3043 9.87989 11.9138 9.69067 11.457C9.50145 11.0002 9.45194 10.4975 9.54841 10.0126C9.64487 9.52763 9.88297 9.08217 10.2326 8.73254C10.5822 8.38291 11.0277 8.14481 11.5126 8.04835C11.9976 7.95188 12.5003 8.00139 12.9571 8.19061C13.4139 8.37983 13.8043 8.70026 14.079 9.11138C14.3537 9.52251 14.5004 10.0059 14.5004 10.5003C14.5004 11.1634 14.237 11.7992 13.7681 12.2681C13.2993 12.7369 12.6634 13.0003 12.0004 13.0003Z" fill="#67D9B7"/>
</svg>
